<svg aria-hidden="true" xmlns="http://www.w3.org/2000/svg" x="0px" y="0px" viewBox="0 0 813 612" role="img" width="1.8em" heigth="auto">
<style type="text/css">
	.st0{fill:currentColor;}
</style>
<g class="st0">
	<g>
		<g>
			<path d="M232.2,316.9l92.1-152.6l-251.1-32c-6.9-0.8-13.6,2.7-16.7,8.9L4.8,244.4c-4.6,9.2,0.3,20.3,10.1,23.1l198.6,56.7
				C220.7,326.3,228.3,323.2,232.2,316.9z"/>
			<path d="M434.9,324.3l37.1-10.6l-58.2-58.2C401,242.7,394,225.7,394,207.5v-52l-69.7,8.9l92,152.7
				C420.2,323.3,427.8,326.4,434.9,324.3z"/>
			<path d="M572.8,414.5L498,339.7l-54.2,15.5c-4.3,1.3-8.8,1.9-13.3,1.9c-17,0-32.9-9-41.6-23.5l-64.5-107l-64.4,107
				c-8.7,14.6-24.7,23.6-41.7,23.6c-4.5,0-9-0.6-13.3-1.9L67.3,315.9v178.7c0,14.8,10,27.6,24.3,31.1l217,54.3
				c10.2,2.5,21,2.5,31.1,0L557,525.7c14.3-3.6,24.3-16.5,24.3-31.1v-73C578.3,419.5,575.4,417.1,572.8,414.5z"/>
		</g>
		<path d="M426,207.5V54.4c0-19.9,16.1-36,36-36h153.1c9.5,0,18.7,3.8,25.5,10.5l158.9,158.9c14.1,14.1,14.1,36.9,0,50.9
			L646.4,391.9c-14.1,14.1-36.9,14.1-50.9,0L436.5,233C429.8,226.2,426,217,426,207.5z M510,66.4c-19.9,0-36,16.1-36,36
			s16.1,36,36,36c19.9,0,36-16.1,36-36S529.9,66.4,510,66.4z"/>
	</g>
</g>
</svg>
