<svg aria-hidden="true" focusable="false"  width="1.8em" heigth="auto" role="img" xmlns="http://www.w3.org/2000/svg" viewBox="0 0 763 612">
<style type="text/css">
	.st0{display:inline; fill:currentColor;}
	.st1{display:inline; fill:currentColor;}
</style>
<g id="Calque_2" focusable="false" class="st1">
	<g>
		<g>
			<path d="M433.9,349.9l72.4-20.7v-78.7h-85.7c-30.1,0-54.5-24.5-54.5-54.5v-9.8l-41.6,5.3l91.1,151.2
				C419.3,349,426.8,351.9,433.9,349.9z"/>
			<path d="M233.1,342.6l91.2-151.1L75.6,159.8c-6.9-0.8-13.4,2.7-16.5,8.8L7.9,270.8c-4.6,9.1,0.3,20.1,10,22.9l196.7,56.2
				C221.7,351.8,229.3,348.9,233.1,342.6z"/>
			<path d="M560.8,390.8c-21.3,0-39.8-12.3-48.7-30.2l-69.4,19.8c-4.3,1.3-8.7,1.9-13.2,1.9c-16.8,0-32.6-8.9-41.2-23.3l-63.9-106
				l-63.8,106c-8.6,14.4-24.5,23.4-41.2,23.4c-4.5,0-8.9-0.6-13.2-1.9l-136.2-39v176.9c0,14.6,9.9,27.3,24.1,30.8l214.9,53.8
				c10.1,2.5,20.8,2.5,30.8,0l215.1-53.8c14.1-3.6,24.1-16.3,24.1-30.8V390.8H560.8z"/>
		</g>
		<path d="M726.5,145H611.8V30.3c0-14.1-11.4-25.5-25.5-25.5h-25.5c-14.1,0-25.5,11.4-25.5,25.5V145H420.5
			c-14.1,0-25.5,11.4-25.5,25.5V196c0,14.1,11.4,25.5,25.5,25.5h114.7v114.7c0,14.1,11.4,25.5,25.5,25.5h25.5
			c14.1,0,25.5-11.4,25.5-25.5V221.5h114.7c14.1,0,25.5-11.4,25.5-25.5v-25.5C752,156.5,740.6,145,726.5,145z"/>
	</g>
</g>
</svg>
